<svg id="Calque_1" data-name="Calque 1" xmlns="http://www.w3.org/2000/svg" viewBox="0 0 1366 263.4">
  <defs>
    <style>
      .cls-1 {
        fill: #f06;
      }

      .cls-2 {
        fill: #036;
      }

      .cls-3 {
        fill: #ccf;
      }
    </style>
  </defs>
  <path class="cls-1" d="M239.84,561.1c-57.3-.72-105.39,5.15-143.11,12.78C34,586.53,0,604,0,604V581.77s19.94-12,53.48-22.07C97.17,546.58,164,536.76,239.84,561.1Z" transform="translate(0 -504.6)"/>
  <path class="cls-1" d="M1008.57,521.92l-2.16.84a171,171,0,0,0-41.16,23.53c-11.84,9.09-37.11,26.7-74.76,43.72-21-2-41.15-4.69-60.59-7.93C877,556,943.21,530.66,1008.57,521.92Z" transform="translate(0 -504.6)"/>
  <path class="cls-1" d="M1366,517.54V593a670.06,670.06,0,0,0-80.47-44.88q-6.75-3.15-13.36-6C1309.13,536.2,1342.75,525.87,1366,517.54Z" transform="translate(0 -504.6)"/>
  <path class="cls-2" d="M96.73,573.88C34,586.53,0,604,0,604V538.87s21.51,9.49,53.48,20.83C66.43,564.29,81.09,569.18,96.73,573.88Z" transform="translate(0 -504.6)"/>
  <path class="cls-2" d="M890.49,590c-36.67,16.57-85.09,32.59-144.29,39.63C676.07,638,590.8,633.77,492,603c-61-19-117.3-30.36-168.31-36.38C404.79,528,516.45,508.41,625,534c65.89,15.54,130.35,35.66,204.9,48.08C849.34,585.32,869.47,588,890.49,590Z" transform="translate(0 -504.6)"/>
  <path class="cls-2" d="M1366,541.14V593a670.06,670.06,0,0,0-80.47-44.88C1315,542.91,1341.54,539.86,1366,541.14Z" transform="translate(0 -504.6)"/>
  <path class="cls-3" d="M1366,593V768H0V604s34-17.47,96.73-30.12c37.72-7.63,85.81-13.5,143.11-12.78a800.17,800.17,0,0,1,83.85,5.52C374.7,572.64,431,584,492,603c98.8,30.77,184.07,35,254.2,26.64,59.2-7,107.62-23.06,144.29-39.63,37.65-17,62.92-34.63,74.76-43.72a171,171,0,0,1,41.16-23.53l2.16-.84c46.36-17.8,136.76-35.08,263.59,20.17h0q6.61,2.88,13.36,6A670.06,670.06,0,0,1,1366,593Z" transform="translate(0 -504.6)"/>
</svg>
